<?xml version="1.0" encoding="UTF-8"?>
<svg version="1.1" xmlns="http://www.w3.org/2000/svg" width="512" height="512">
<path d="M0 0 C0.95616211 -0.02698975 1.91232422 -0.05397949 2.89746094 -0.08178711 C8.81660899 -0.04892614 12.43335083 0.9426524 17.18017578 4.53735352 C18.88248721 5.86356903 18.88248721 5.86356903 21.5 5.0625 C23.80525177 3.61846706 23.80525177 3.61846706 25.79296875 1.99609375 C30.2940148 -0.14088413 34.51381658 0.0736611 39.4375 0.125 C40.46004883 0.13329834 41.48259766 0.14159668 42.53613281 0.15014648 C75.09022067 0.86059217 105.45196068 16.26062157 127.8125 39.5625 C138.50660885 51.35624143 147.04751286 65.05420059 152.6875 79.9375 C152.94950195 80.6183667 153.21150391 81.2992334 153.48144531 82.00073242 C159.86420772 100.02036044 160.35468766 117.71724794 160.00146484 136.64575195 C159.95062396 139.81285381 159.94877458 142.97709306 159.953125 146.14453125 C159.92116028 147.10390091 159.88919556 148.06327057 159.85626221 149.05171204 C159.85385537 154.2149842 159.85385537 154.2149842 162.55236816 158.41293335 C164.64379576 160.00468391 164.64379576 160.00468391 166.8180542 161.26225281 C172.82880229 165.18086434 174.78105491 172.516972 176.24609375 179.1640625 C179.7014733 199.8963398 176.44477456 219.76062125 164.8125 237.5625 C157.72978257 246.65419257 149.11190393 255.21154532 138.8125 260.5625 C138.1525 260.5625 137.4925 260.5625 136.8125 260.5625 C136.64886963 261.09617187 136.48523926 261.62984375 136.31665039 262.1796875 C134.39706919 268.20762874 131.98741038 273.8639229 129.25 279.5625 C128.81381348 280.47314209 128.37762695 281.38378418 127.92822266 282.32202148 C118.89189409 300.89525688 107.51579736 321.85920264 92.8125 336.5625 C92.70231831 338.76433812 92.66335436 340.96975581 92.65136719 343.17431641 C92.64640228 343.86547546 92.64143738 344.55663452 92.63632202 345.26873779 C92.62165748 347.56718935 92.61488898 349.86557174 92.609375 352.1640625 C92.60362412 353.76012169 92.59786638 355.35618085 92.59210205 356.95223999 C92.58157785 360.30654218 92.57574547 363.66082033 92.57226562 367.01513672 C92.56679822 371.30239453 92.54281413 375.58933194 92.51429367 379.87648964 C92.49561211 383.17773341 92.49045862 386.47890117 92.48892975 389.78019333 C92.48591174 391.35976272 92.47791205 392.93933103 92.46474457 394.51884842 C92.44757904 396.73757988 92.44959014 398.95554443 92.45605469 401.17431641 C92.45240906 402.43482819 92.44876343 403.69533997 92.44500732 404.99404907 C92.86845167 409.1058055 93.80698331 411.94882983 95.8125 415.5625 C99.04146188 418.08576944 102.29103094 419.16084373 106.22583008 420.19042969 C107.30604431 420.47718567 108.38625854 420.76394165 109.49920654 421.05938721 C110.6815387 421.36463318 111.86387085 421.66987915 113.08203125 421.984375 C114.97891693 422.48405792 114.97891693 422.48405792 116.91412354 422.99383545 C119.68585955 423.72379976 122.45886516 424.44865577 125.23294067 425.16967773 C129.6755776 426.32442958 134.11511464 427.49080935 138.55444336 428.65820312 C153.57279593 432.60349137 168.60145824 436.50926911 183.63027668 440.41446304 C191.72608649 442.51814624 199.82111966 444.62480374 207.91583538 446.73269272 C213.8753001 448.28394174 219.83632704 449.82900756 225.79858208 451.36949539 C229.53751424 452.33664285 233.275241 453.30838727 237.01268768 454.28125763 C238.76412798 454.73607015 240.51609057 455.18887658 242.26859283 455.63957977 C244.67141441 456.2577752 247.07232591 456.88291047 249.47290039 457.50976562 C250.53099018 457.7792206 250.53099018 457.7792206 251.61045551 458.05411911 C254.80605601 458.89596942 257.02922738 459.70698492 259.8125 461.5625 C260.16894531 463.42602539 260.16894531 463.42602539 260.140625 465.66015625 C260.13546875 466.46130859 260.1303125 467.26246094 260.125 468.08789062 C260.104375 468.92513672 260.08375 469.76238281 260.0625 470.625 C260.05734375 471.46611328 260.0521875 472.30722656 260.046875 473.17382812 C259.96649235 479.40850765 259.96649235 479.40850765 258.8125 480.5625 C256.27517187 480.66226543 253.76501683 480.69611845 251.22714233 480.68834114 C250.01529703 480.6905213 250.01529703 480.6905213 248.77897 480.69274551 C246.03671039 480.69643247 243.29450542 480.6929067 240.55224609 480.68948364 C238.58044086 480.6906344 236.60863585 480.69222161 234.63683128 480.69421089 C229.1910632 480.69841047 223.7453125 480.6963107 218.29954433 480.69322467 C212.43718278 480.69097333 206.57482433 480.69444884 200.71246338 480.69720459 C189.21727783 480.70166415 177.72209879 480.700685 166.22691298 480.69779195 C156.88912893 480.69550335 147.55134637 480.69519854 138.21356201 480.69631577 C137.21987217 480.69643034 137.21987217 480.69643034 136.20610778 480.69654724 C133.51724952 480.69685855 130.82839126 480.69717695 128.13953301 480.697507 C102.89447259 480.70056887 77.64941572 480.69778799 52.40435585 480.6924101 C29.95511554 480.68766418 7.50588089 480.68808879 -14.94335938 480.69287109 C-40.14101689 480.69822088 -65.33867126 480.70035176 -90.53632927 480.69725883 C-93.22040685 480.69693809 -95.90448443 480.69662525 -98.58856201 480.69631577 C-99.24949402 480.69623669 -99.91042602 480.69615761 -100.59138627 480.69607614 C-110.59048661 480.69493666 -120.58958422 480.6962788 -130.58868408 480.69879532 C-141.9533493 480.70159249 -153.3180076 480.70085681 -164.68267202 480.69551457 C-170.4872205 480.69287644 -176.29175744 480.69187438 -182.09630585 480.69516373 C-187.40087202 480.6981244 -192.70541584 480.69653774 -198.00997996 480.69118617 C-199.93794951 480.690061 -201.86592091 480.69065535 -203.79388928 480.69306196 C-206.39666788 480.69606387 -208.99936798 480.69302364 -211.60214233 480.68834114 C-212.36610659 480.69068231 -213.13007085 480.69302347 -213.91718554 480.69543558 C-219.07334966 480.67665034 -219.07334966 480.67665034 -220.1875 479.5625 C-220.27381874 478.21982587 -220.29456473 476.87275678 -220.28515625 475.52734375 C-220.28193359 474.71845703 -220.27871094 473.90957031 -220.27539062 473.07617188 C-220.26282227 471.8009668 -220.26282227 471.8009668 -220.25 470.5 C-220.24548828 469.64599609 -220.24097656 468.79199219 -220.23632812 467.91210938 C-220.22450373 465.79554337 -220.20656769 463.67901315 -220.1875 461.5625 C-215.1169908 459.25022415 -210.15773733 457.61580621 -204.76025391 456.25683594 C-203.94266318 456.04612615 -203.12507246 455.83541636 -202.28270626 455.61832142 C-199.57781403 454.92256635 -196.8709687 454.23474887 -194.1640625 453.546875 C-192.24229129 453.05407026 -190.32065815 452.56072683 -188.39915466 452.06687927 C-184.31954067 451.01934856 -180.23910681 449.97509949 -176.1579895 448.93344116 C-169.80473306 447.31152813 -163.45374413 445.68087011 -157.10327148 444.0480957 C-154.98411599 443.50330966 -152.8649601 442.95852511 -150.74580383 442.41374207 C-149.69985865 442.14483847 -148.65391346 441.87593487 -147.57627296 441.59888268 C-144.41097982 440.78536792 -141.24552058 439.97250277 -138.08000183 439.15986633 C-121.99520666 435.03048875 -105.91300655 430.89170448 -89.84710693 426.68933105 C-87.46338509 426.0668575 -85.07899099 425.4469522 -82.69390869 424.82971191 C-79.45180155 423.99045062 -76.21196852 423.14294301 -72.97265625 422.29296875 C-72.05205917 422.0565416 -71.1314621 421.82011444 -70.18296814 421.57652283 C-62.04403869 419.48968338 -62.04403869 419.48968338 -55.375 414.625 C-52.97822973 410.46218847 -53.02671054 406.41603099 -52.93115234 401.67358398 C-52.90924835 400.64582603 -52.90924835 400.64582603 -52.88690186 399.5973053 C-52.76088567 393.27927585 -52.6921025 386.96002894 -52.63905907 380.64100552 C-52.60336175 376.4045051 -52.5501952 372.16991382 -52.45361328 367.93432617 C-52.36022224 363.8251562 -52.31205013 359.7176712 -52.29466629 355.60750008 C-52.28066966 354.05057039 -52.2512527 352.49369225 -52.20536423 350.93737602 C-51.97824116 342.83609787 -52.16864579 336.87521712 -57.55200195 330.28686523 C-59.08323873 328.69852948 -60.62726097 327.122356 -62.1875 325.5625 C-64.2440791 322.84599749 -66.12916842 320.03441761 -68 317.1875 C-68.49862549 316.43202881 -68.99725098 315.67655762 -69.51098633 314.89819336 C-78.54808454 301.02206652 -86.45305305 286.61688135 -93.34765625 271.56640625 C-93.66581299 270.87957764 -93.98396973 270.19274902 -94.31176758 269.48510742 C-95.0970174 267.76114803 -95.84040672 266.01826557 -96.578125 264.2734375 C-98.55926445 260.93627542 -100.57007322 259.62657537 -103.875 257.625 C-120.62384571 246.93553237 -131.35415308 231.60840234 -136.43359375 212.33203125 C-139.52239612 196.88801942 -139.57030764 178.46945238 -131.02734375 164.69140625 C-128.94403441 162.00520996 -127.12562227 160.53235456 -124.06494141 159.04125977 C-121.07450166 156.94163584 -121.07450166 156.94163584 -120.65008545 154.48214722 C-120.46053573 151.75169661 -120.46236386 149.0762924 -120.5234375 146.33984375 C-120.517108 144.8178109 -120.517108 144.8178109 -120.51065063 143.26502991 C-120.49977659 140.00928261 -120.52778177 136.75555718 -120.5625 133.5 C-120.7043143 114.81880248 -119.78864205 97.34469922 -112.9375 79.75 C-112.64085449 78.97068115 -112.34420898 78.1913623 -112.03857422 77.38842773 C-100.45016205 47.94637275 -76.61035449 23.58868149 -47.88525391 10.51464844 C-32.45192465 3.96169751 -16.77223875 0.28792968 0 0 Z M-64.296875 30.8984375 C-66.97088865 33.07378374 -69.58595148 35.3014226 -72.1875 37.5625 C-73.26895156 38.41904792 -74.35192668 39.27368198 -75.4375 40.125 C-98.1341876 60.24251855 -110.15774543 90.64201089 -111.98461914 120.34350586 C-112.3631168 127.39172949 -112.29278138 134.44430117 -112.25 141.5 C-112.244965 142.97330574 -112.2404057 144.44661318 -112.23632812 145.91992188 C-112.22550377 149.4674844 -112.20835455 153.01498052 -112.1875 156.5625 C-108.8875 157.2225 -105.5875 157.8825 -102.1875 158.5625 C-101.76791016 157.50675781 -101.76791016 157.50675781 -101.33984375 156.4296875 C-90.44533823 129.59627519 -76.14065582 110.71117677 -48.7746582 99.12866211 C-31.43588103 92.24975128 -12.15210657 89.82916618 6.375 89 C7.74495117 88.93522461 7.74495117 88.93522461 9.14257812 88.86914062 C11.36577991 88.76438243 13.58906707 88.66220983 15.8125 88.5625 C15.8821572 79.81733642 15.93539077 71.07226905 15.96793652 62.32688808 C15.98356063 58.26559554 16.00473893 54.20449348 16.03881836 50.14331055 C16.07152862 46.22052716 16.08937748 42.29792646 16.09713173 38.37501717 C16.10265439 36.88195993 16.11343873 35.38891215 16.12969017 33.89593315 C16.15162048 31.79686118 16.15446056 29.6985342 16.15307617 27.59936523 C16.15973801 26.40689682 16.16639984 25.21442841 16.17326355 23.98582458 C15.63053389 18.83580382 14.17041166 14.92041166 10.4375 11.1875 C-8.98408579 -0.83538644 -48.11459628 18.74139896 -64.296875 30.8984375 Z M28.8125 11.5625 C23.970773 16.53164086 23.68629799 20.42303041 23.69897461 27.16699219 C23.69882858 27.82106552 23.69868256 28.47513885 23.6985321 29.14903259 C23.69922659 31.30251426 23.70699717 33.45590852 23.71484375 35.609375 C23.71670958 37.10581414 23.71813271 38.60225388 23.71913147 40.09869385 C23.72294365 44.03108415 23.73276283 47.96343732 23.74383545 51.89581299 C23.75407751 55.91100563 23.75863508 59.9262043 23.76367188 63.94140625 C23.77438628 71.81512117 23.79144709 79.68880596 23.8125 87.5625 C24.69397705 87.64355988 25.5754541 87.72461975 26.48364258 87.80813599 C29.80705237 88.11580363 33.13006049 88.42729527 36.45288086 88.74124146 C37.88112674 88.87542545 39.30950986 89.0081581 40.73803711 89.13931274 C71.55341113 91.97252212 102.93053671 99.21410283 123.84375 123.94140625 C130.48289335 132.78042449 135.45252544 142.0272099 138.87353516 152.54711914 C139.44155155 154.24711411 140.11864678 155.90986778 140.8125 157.5625 C144.02967892 158.63489297 144.86533612 158.49859485 148 157.625 C149.258125 157.274375 150.51625 156.92375 151.8125 156.5625 C152.29863245 116.67346305 150.18939645 80.06178626 122.8125 48.5625 C121.95595208 47.48104844 121.10131802 46.39807332 120.25 45.3125 C103.27586939 26.16219879 76.21538688 12.41275379 50.8125 9.5625 C49.57371094 9.418125 48.33492188 9.27375 47.05859375 9.125 C37.4707155 8.06883845 37.4707155 8.06883845 28.8125 11.5625 Z M-74.25 126.1875 C-94.78419013 147.2947373 -99.64094519 178.93142792 -99.625 207.1875 C-99.62540283 207.92817719 -99.62580566 208.66885437 -99.6262207 209.43197632 C-99.58687428 222.05759957 -98.28064845 233.54587275 -94.1875 245.5625 C-93.90874023 246.40458008 -93.62998047 247.24666016 -93.34277344 248.11425781 C-82.36128935 280.64523228 -63.89844978 310.91007178 -41.1875 336.5625 C-40.3934375 337.46742188 -39.599375 338.37234375 -38.78125 339.3046875 C-36.61040361 341.75060689 -34.41133211 344.16473689 -32.1875 346.5625 C-31.56746094 347.23667969 -30.94742188 347.91085937 -30.30859375 348.60546875 C-17.50327446 361.99892379 0.47489051 375.5998378 19.5625 376.0625 C41.07295836 375.91999696 58.97053214 359.3094561 73.5625 345.0625 C78.67932294 339.83460276 83.30610728 334.31935771 87.8125 328.5625 C88.60269531 327.57765625 89.39289063 326.5928125 90.20703125 325.578125 C108.26240456 302.86491614 123.49322869 276.14397613 132.75 248.625 C133.02030029 247.82215576 133.29060059 247.01931152 133.5690918 246.19213867 C137.64642581 233.45902621 139.33445815 221.24512828 139.1875 207.9375 C139.18317963 207.19404327 139.17885925 206.45058655 139.17440796 205.68460083 C139.09356832 193.79224423 138.49410876 182.18368441 135.8125 170.5625 C135.56306641 169.46929443 135.56306641 169.46929443 135.30859375 168.35400391 C131.85831727 153.89798439 125.9164585 139.64762803 115.8125 128.5625 C115.08546875 127.74394531 114.3584375 126.92539063 113.609375 126.08203125 C92.55086395 103.63094124 60.381073 98.03823274 30.9375 96.8125 C-6.90983522 95.60319647 -45.52210423 99.16232145 -74.25 126.1875 Z M-121.1875 167.5625 C-129.31917318 179.52084291 -130.12544275 192.80961325 -127.9765625 206.8203125 C-124.96830495 221.08719731 -117.76332925 233.56353416 -107.1875 243.5625 C-105.04405203 244.82963092 -105.04405203 244.82963092 -103.1875 245.5625 C-103.62718454 243.27096761 -104.08118063 240.98390563 -104.55541992 238.69921875 C-104.96680079 236.65772727 -105.34657386 234.60952691 -105.68945312 232.55541992 C-107.55541497 222.66289694 -112.02010924 216.1669559 -118.00195312 208.24609375 C-123.1514733 200.96970664 -124.33161419 195.41557164 -123.1875 186.5625 C-122.25334114 182.26883888 -120.90509187 178.78838612 -118.6875 175 C-114.49254484 172.58790078 -109.91016809 173.26936888 -105.1875 173.5625 C-104.8575 171.9125 -104.5275 170.2625 -104.1875 168.5625 C-109.817183 164.63878154 -115.60626014 162.73548175 -121.1875 167.5625 Z M144.8125 167.5625 C144.8125 169.5425 144.8125 171.5225 144.8125 173.5625 C145.56015625 173.51609375 146.3078125 173.4696875 147.078125 173.421875 C155.08881579 173.12828947 155.08881579 173.12828947 158.3125 175.0625 C160.3915314 178.52755233 161.88818451 181.64340234 162.8125 185.5625 C163.04710937 186.50609375 163.28171875 187.4496875 163.5234375 188.421875 C164.86852511 199.03030181 159.61351387 204.77330548 153.53344727 212.93139648 C146.60089913 222.54676558 142.8125 233.6040103 142.8125 245.5625 C154.63057959 240.18128293 161.41658409 226.11255358 165.8125 214.5625 C166.73756835 211.58003918 167.34905896 208.64859601 167.8125 205.5625 C167.9465625 204.74523437 168.080625 203.92796875 168.21875 203.0859375 C169.85982751 190.44218121 167.78948802 178.26880404 160.875 167.5625 C155.76471347 162.60707064 150.71020669 165.28822095 144.8125 167.5625 Z M-113.1875 181.5625 C-115.2311479 186.54389176 -116.22070936 191.24885187 -115.1875 196.5625 C-113.5235199 199.84078914 -111.57458473 202.76544503 -109.1875 205.5625 C-108.8575 205.5625 -108.5275 205.5625 -108.1875 205.5625 C-107.96226976 201.93834067 -107.76018692 198.31325781 -107.5625 194.6875 C-107.49804688 193.65496094 -107.43359375 192.62242187 -107.3671875 191.55859375 C-107.315625 190.57246094 -107.2640625 189.58632812 -107.2109375 188.5703125 C-107.15856934 187.65910645 -107.10620117 186.74790039 -107.05224609 185.80908203 C-106.95058767 183.3571891 -106.95058767 183.3571891 -109.1875 181.5625 C-110.5075 181.5625 -111.8275 181.5625 -113.1875 181.5625 Z M148.19213867 182.75708008 C146.35895884 185.1560121 146.53932079 186.46481186 146.73828125 189.44921875 C146.79306641 190.38701172 146.84785156 191.32480469 146.90429688 192.29101562 C146.97712891 193.26748047 147.04996094 194.24394531 147.125 195.25 C147.18623047 196.23806641 147.24746094 197.22613281 147.31054688 198.24414062 C147.46382884 200.68486119 147.63167154 203.12369089 147.8125 205.5625 C148.43640625 204.77488281 149.0603125 203.98726562 149.703125 203.17578125 C151.8125 200.5625 151.8125 200.5625 153.5625 198.75 C155.45567854 195.43693756 155.34411173 192.23607337 154.8125 188.5625 C153.99735916 186.07491504 152.9887807 183.91506141 151.8125 181.5625 C149.74528462 181.36469942 149.74528462 181.36469942 148.19213867 182.75708008 Z M-44.1875 347.5625 C-44.19336624 348.38855743 -44.19923248 349.21461487 -44.20527649 350.06570435 C-44.26326261 357.86358096 -44.33537315 365.66117296 -44.42321491 373.45877266 C-44.46787715 377.46728619 -44.50714218 381.47569905 -44.53393555 385.484375 C-44.56001025 389.35547374 -44.6004415 393.22618427 -44.65068626 397.09704208 C-44.66732694 398.57130975 -44.67885864 400.04564452 -44.68511391 401.51999283 C-44.694786 403.59072485 -44.7228794 405.66047 -44.75512695 407.73095703 C-44.77178154 409.49634323 -44.77178154 409.49634323 -44.78877258 411.2973938 C-45.5296559 417.36435234 -48.30829842 421.47229036 -52.97097778 425.20730591 C-57.48644156 427.96808574 -62.55753513 429.01769978 -67.65234375 430.27734375 C-68.91424026 430.60631149 -70.17613678 430.93527924 -71.47627258 431.2742157 C-74.23458975 431.99313368 -76.99568886 432.69961849 -79.75964355 433.39654541 C-84.18484354 434.51236285 -88.60300488 435.65443927 -93.02050781 436.80029297 C-98.6434264 438.25669798 -104.26817736 439.70567389 -109.89507103 441.14664459 C-122.3643843 444.34044872 -134.81821547 447.59229022 -147.26953125 450.85546875 C-149.30106069 451.38775241 -151.33259044 451.92003493 -153.36412048 452.45231628 C-156.39045658 453.24529733 -159.41678048 454.0383248 -162.44306469 454.83150387 C-173.06953063 457.6162561 -183.69864225 460.39085157 -194.328125 463.1640625 C-196.05463181 463.6145569 -197.78113837 464.06505227 -199.50764465 464.51554871 C-203.40088799 465.53135936 -207.29417765 466.54699223 -211.1875 467.5625 C-211.5175 469.2125 -211.8475 470.8625 -212.1875 472.5625 C-59.0675 472.5625 94.0525 472.5625 251.8125 472.5625 C251.8125 471.2425 251.8125 469.9225 251.8125 468.5625 C240.36907178 464.85071189 228.75390137 461.87369979 217.109375 458.87109375 C214.98407153 458.3205437 212.85884946 457.76967929 210.73370361 457.21852112 C205.14093706 455.76867704 199.54734847 454.32203328 193.95349121 452.87640381 C176.59972126 448.39131106 159.24877975 443.89550319 141.90567017 439.36934662 C138.8302334 438.56712572 135.75435546 437.76661171 132.6784668 436.96612549 C127.86820762 435.71291033 123.06068571 434.4496661 118.25510406 433.17863655 C116.49576947 432.71465998 114.73565044 432.25364587 112.9746933 431.79586601 C110.56188161 431.16794104 108.1522785 430.52890471 105.74316406 429.88696289 C105.05209312 429.7096998 104.36102219 429.53243671 103.6490097 429.34980202 C97.3345497 427.64332873 91.06147078 425.51329572 86.85668945 420.29101562 C83.4356088 414.06347549 84.08424502 406.81089481 84.10546875 399.90625 C84.09233649 398.39308699 84.07702759 396.87994146 84.05964661 395.36682129 C84.01996144 391.40810817 84.00961694 387.44985533 84.00561523 383.4909668 C83.99625242 379.44175398 83.95881943 375.3928081 83.92382812 371.34375 C83.85942051 363.4166615 83.82604274 355.48983791 83.8125 347.5625 C82.68611834 348.52010901 81.56084169 349.4790179 80.43603516 350.43847656 C79.80927887 350.97232971 79.18252258 351.50618286 78.53677368 352.05621338 C76.63913849 353.71394471 74.90659224 355.47119741 73.1875 357.3125 C58.95889233 371.65055849 40.48710565 383.78614771 19.8125 384.0625 C-3.23772095 383.75439345 -21.95210429 369.13449045 -37.5 353.375 C-38.58008648 352.25714716 -39.65957316 351.13871427 -40.73828125 350.01953125 C-41.54652344 349.20871094 -42.35476562 348.39789063 -43.1875 347.5625 C-43.5175 347.5625 -43.8475 347.5625 -44.1875 347.5625 Z " fill="#000000" transform="translate(236.1875,15.4375)"/>
<path d="M0 0 C2.7421875 0.71484375 2.7421875 0.71484375 6 2 C25.3102643 9.0278853 42.33571966 9.45862027 61.6328125 2.0234375 C65.27435654 0.91661089 68.21496694 0.7451474 72 1 C73.54799142 2.54799142 73.28227181 3.96371984 73.375 6.125 C73.21222948 18.74875786 67.36975121 30.1795029 58.90234375 39.24609375 C50.32253571 47.49299918 42.18179458 49.61237829 30.54760742 49.47094727 C20.51869195 49.0739189 13.8542032 45.28893068 7 38 C-1.16185565 28.36787936 -3.44735579 17.17285867 -3.43359375 4.80078125 C-3.29050781 3.87652344 -3.14742188 2.95226562 -3 2 C-2.01 1.34 -1.02 0.68 0 0 Z M6 13 C8.92172667 23.47470094 11.78053051 31.63645765 21 38 C27.65791805 41.30638981 35.83410708 41.21036078 42.890625 39.16015625 C52.6458862 34.7164253 58.01456498 26.68361896 62 17 C62.36505118 15.67499942 62.71034653 14.34349907 63 13 C59.11771915 13.50638446 55.35500655 14.14408989 51.5390625 15.01953125 C45.43702303 16.24598187 39.4579191 16.3415982 33.25 16.3125 C31.53997803 16.31056641 31.53997803 16.31056641 29.79541016 16.30859375 C21.52175207 16.21432048 13.94988037 15.4283271 6 13 Z " fill="#000000" transform="translate(283,247)"/>
<path d="M0 0 C2.7421875 0.71484375 2.7421875 0.71484375 6 2 C25.3102643 9.0278853 42.33571966 9.45862027 61.6328125 2.0234375 C65.27435654 0.91661089 68.21496694 0.7451474 72 1 C73.54799142 2.54799142 73.28227181 3.96371984 73.375 6.125 C73.21222948 18.74875786 67.36975121 30.1795029 58.90234375 39.24609375 C50.32253571 47.49299918 42.18179458 49.61237829 30.54760742 49.47094727 C20.51869195 49.0739189 13.8542032 45.28893068 7 38 C-1.16185565 28.36787936 -3.44735579 17.17285867 -3.43359375 4.80078125 C-3.29050781 3.87652344 -3.14742187 2.95226562 -3 2 C-2.01 1.34 -1.02 0.68 0 0 Z M6 13 C8.92172667 23.47470094 11.78053051 31.63645765 21 38 C27.65791805 41.30638981 35.83410708 41.21036078 42.890625 39.16015625 C52.6458862 34.7164253 58.01456498 26.68361896 62 17 C62.36505118 15.67499942 62.71034653 14.34349907 63 13 C59.11771915 13.50638446 55.35500655 14.14408989 51.5390625 15.01953125 C45.43702303 16.24598187 39.4579191 16.3415982 33.25 16.3125 C31.53997803 16.31056641 31.53997803 16.31056641 29.79541016 16.30859375 C21.52175207 16.21432048 13.94988037 15.4283271 6 13 Z " fill="#000000" transform="translate(163,247)"/>
<path d="M0 0 C0.94875 0.04125 1.8975 0.0825 2.875 0.125 C4.28534283 3.39997878 5.65417943 6.69058141 7.00097656 9.9921875 C7.63264468 11.53359887 8.27084215 13.07234001 8.91308594 14.609375 C10.04608838 17.33575554 11.14975816 20.07275306 12.25 22.8125 C12.61996094 23.69059326 12.98992187 24.56868652 13.37109375 25.47338867 C17.67771988 36.37607123 14.41544391 44.49032617 10.37451172 55.08422852 C9.62005689 57.07554692 8.89756627 59.07672153 8.17578125 61.08007812 C7.69720474 62.35487864 7.21680084 63.62899496 6.734375 64.90234375 C6.30608398 66.04952881 5.87779297 67.19671387 5.43652344 68.37866211 C3.875 71.125 3.875 71.125 1.44628906 72.70141602 C-1.125 73.125 -1.125 73.125 -3.24682617 72.19262695 C-5.73879703 69.4492887 -6.91505199 66.46863533 -8.17578125 63.04296875 C-8.43884567 62.3511702 -8.7019101 61.65937164 -8.97294617 60.9466095 C-9.52443427 59.48555125 -10.06953889 58.02206955 -10.60864258 56.55639648 C-11.4335419 54.32321544 -12.2864628 52.10223132 -13.14257812 49.88085938 C-13.67620753 48.45637544 -14.20816462 47.03126368 -14.73828125 45.60546875 C-15.12092888 44.61609566 -15.12092888 44.61609566 -15.51130676 43.60673523 C-18.02669038 36.63257891 -16.14973075 31.77831039 -13.69140625 25.046875 C-13.45340805 24.39422668 -13.21540985 23.74157837 -12.97019958 23.06915283 C-12.46931323 21.70009285 -11.96577763 20.33199948 -11.4597168 18.96484375 C-10.68568276 16.87008203 -9.92341706 14.7712906 -9.16210938 12.671875 C-8.67257346 11.33828507 -8.18236272 10.00494261 -7.69140625 8.671875 C-7.24740479 7.46370117 -6.80340332 6.25552734 -6.34594727 5.01074219 C-4.72963115 1.19053493 -4.23702885 0.16948115 0 0 Z M-1.125 18.125 C-2.16391291 20.66054978 -3.18107425 23.20157825 -4.1875 25.75 C-4.62932617 26.81927734 -4.62932617 26.81927734 -5.08007812 27.91015625 C-7.97225077 35.32772845 -6.27847822 40.11811048 -3.5625 47.5 C-3.21155273 48.46099609 -3.21155273 48.46099609 -2.85351562 49.44140625 C-2.28200381 51.0043161 -1.70415771 52.56490727 -1.125 54.125 C3.60277404 50.13637647 5.32384842 43.92319105 6.875 38.125 C7.01979198 31.08588201 2.8954717 24.2927571 -0.125 18.125 C-0.455 18.125 -0.785 18.125 -1.125 18.125 Z " fill="#000000" transform="translate(428.125,35.875)"/>
<path d="M0 0 C1.4540625 0.0309375 1.4540625 0.0309375 2.9375 0.0625 C6.34356032 6.56213803 9.08234139 13.20592619 11.6875 20.0625 C12.09871094 21.1040625 12.50992188 22.145625 12.93359375 23.21875 C17.33537224 34.80083825 15.87352477 41.53855404 11.45751953 52.83642578 C10.68635582 54.81543627 9.94159594 56.80300588 9.19921875 58.79296875 C8.71247464 60.0656931 8.22424406 61.33785017 7.734375 62.609375 C7.29448242 63.75245117 6.85458984 64.89552734 6.40136719 66.07324219 C4.93078483 69.07621256 3.43720608 70.87575872 0.9375 73.0625 C-1.30859375 72.65234375 -1.30859375 72.65234375 -4.0625 71.0625 C-5.82333227 68.07558354 -6.94719012 64.87805457 -8.125 61.625 C-8.46789063 60.71717773 -8.81078125 59.80935547 -9.1640625 58.87402344 C-9.83985489 57.07854841 -10.50820811 55.28025271 -11.16845703 53.47900391 C-11.90124824 51.49834652 -12.67711198 49.53367411 -13.46484375 47.57421875 C-13.82707031 46.66285156 -14.18929687 45.75148438 -14.5625 44.8125 C-14.8615625 44.06484375 -15.160625 43.3171875 -15.46875 42.546875 C-17.02634783 36.02955778 -15.96609546 30.62731979 -13.47265625 24.53515625 C-13.20867538 23.86077011 -12.94469452 23.18638397 -12.67271423 22.49156189 C-11.83605611 20.36414184 -10.98061721 18.244855 -10.125 16.125 C-9.55415301 14.67689907 -8.98448049 13.22833458 -8.41601562 11.77929688 C-3.79286843 0.07740548 -3.79286843 0.07740548 0 0 Z M-1.0625 18.0625 C-2.10372278 20.57652485 -3.12025302 23.09642388 -4.125 25.625 C-4.56682617 26.68170898 -4.56682617 26.68170898 -5.01757812 27.75976562 C-7.95015643 35.24646554 -6.46297682 40.63054484 -3.5 48 C-3.04496094 49.14339844 -2.58992188 50.28679687 -2.12109375 51.46484375 C-1.77175781 52.32207031 -1.42242187 53.17929687 -1.0625 54.0625 C-0.4025 54.0625 0.2575 54.0625 0.9375 54.0625 C1.97872278 51.54847515 2.99525302 49.02857612 4 46.5 C4.44182617 45.44329102 4.44182617 45.44329102 4.89257812 44.36523438 C7.82515643 36.87853446 6.33797682 31.49445516 3.375 24.125 C2.91996094 22.98160156 2.46492188 21.83820313 1.99609375 20.66015625 C1.47208984 19.37431641 1.47208984 19.37431641 0.9375 18.0625 C0.2775 18.0625 -0.3825 18.0625 -1.0625 18.0625 Z " fill="#000000" transform="translate(72.0625,283.9375)"/>
<path d="M0 0 C1.52319336 2.22143555 1.52319336 2.22143555 2.58984375 5.13671875 C2.98107422 6.18923828 3.37230469 7.24175781 3.77539062 8.32617188 C4.15888672 9.43541016 4.54238281 10.54464844 4.9375 11.6875 C5.34806641 12.77740234 5.75863281 13.86730469 6.18164062 14.99023438 C8.98215042 22.74948832 9.17116063 27.38002994 6.1875 35.14453125 C5.65769531 36.52995117 5.65769531 36.52995117 5.1171875 37.94335938 C4.56417969 39.36358398 4.56417969 39.36358398 4 40.8125 C3.63132812 41.77865234 3.26265625 42.74480469 2.8828125 43.74023438 C0.14158929 50.85841071 0.14158929 50.85841071 -1 52 C-2.99958364 52.04080783 -5.00045254 52.04254356 -7 52 C-8.19723136 49.17249616 -9.38112751 46.34067205 -10.546875 43.5 C-11.50402775 41.19459984 -12.49302664 38.90212623 -13.515625 36.625 C-13.98484375 35.531875 -14.4540625 34.43875 -14.9375 33.3125 C-15.60072266 31.82169922 -15.60072266 31.82169922 -16.27734375 30.30078125 C-17.9077024 22.85400796 -14.21670718 15.36565329 -11.5 8.5 C-11.19191406 7.69046875 -10.88382812 6.8809375 -10.56640625 6.046875 C-10.11587891 4.89445312 -10.11587891 4.89445312 -9.65625 3.71875 C-9.38619141 3.02716797 -9.11613281 2.33558594 -8.83789062 1.62304688 C-6.87535343 -2.1785112 -3.52514434 -1.02560474 0 0 Z M-5 18 C-7.23082477 22.33042455 -7.0472723 25.28727465 -6 30 C-5.01 31.485 -5.01 31.485 -4 33 C-2.04529188 29.71609035 -0.97342416 27.67768381 -1.125 23.8125 C-2.00455451 20.98536049 -2.70148369 19.79883885 -5 18 Z " fill="#000000" transform="translate(392,336)"/>
<path d="M0 0 C3.125 -0.1875 3.125 -0.1875 6 0 C6.54527344 1.10408203 6.54527344 1.10408203 7.1015625 2.23046875 C11.06750005 9.92845522 14.4344215 15.24422196 23 18 C31.21080703 18.74407735 40.27184806 19.5126334 47 14 C51.18750258 9.81249742 53.53036931 5.3051326 56 0 C57.98 0 59.96 0 62 0 C63.37324275 2.75629437 64.12389248 4.35782396 63.53125 7.4296875 C59.30101703 17.46046719 54.8465056 22.04089441 45 26.8359375 C36.32500201 30.20201745 25.76260927 30.10497909 17 27 C8.96521537 23.29351361 3.34507411 18.61649421 -0.09765625 10.37109375 C-1.70573271 5.5886326 -1.70573271 5.5886326 -2 3 C-1.34 2.01 -0.68 1.02 0 0 Z " fill="#000000" transform="translate(285,220)"/>
<path d="M0 0 C1.4540625 0.0309375 1.4540625 0.0309375 2.9375 0.0625 C3.48277344 1.16658203 3.48277344 1.16658203 4.0390625 2.29296875 C8.00500005 9.99095522 11.3719215 15.30672196 19.9375 18.0625 C28.14830703 18.80657735 37.20934806 19.5751334 43.9375 14.0625 C48.12500258 9.87499742 50.46786931 5.3676326 52.9375 0.0625 C55.8125 -0.0625 55.8125 -0.0625 58.9375 0.0625 C59.9275 1.0525 59.9275 1.0525 60.9375 2.0625 C60.80564856 9.85821665 56.46261812 16.45082764 51.1875 21.85546875 C43.99497172 27.92416449 34.52816593 29.6452618 25.30078125 29.27734375 C16.3552657 28.46411506 8.38685531 25.75037745 2.04296875 19.06640625 C-2.52023127 13.19309041 -4.49939621 8.63536762 -4.0625 1.0625 C-3.0625 0.0625 -3.0625 0.0625 0 0 Z " fill="#000000" transform="translate(168.0625,219.9375)"/>
<path d="M0 0 C4.13247801 2.76332115 5.18384869 6.8135469 6.89453125 11.3515625 C7.25353516 12.22941406 7.61253906 13.10726562 7.98242188 14.01171875 C11.69195492 23.5222549 10.93181031 30.09966717 7.26953125 39.5390625 C6.96080078 40.38404297 6.65207031 41.22902344 6.33398438 42.09960938 C3.62334475 49.28423103 3.62334475 49.28423103 0.58203125 51.7265625 C-2.33203125 52.04296875 -2.33203125 52.04296875 -5.41796875 50.7265625 C-7.42698387 47.57624228 -8.57525154 44.18217545 -9.79296875 40.6640625 C-10.14746094 39.73400391 -10.50195312 38.80394531 -10.8671875 37.84570312 C-14.53457491 27.7710076 -13.72844427 21.18605051 -9.60546875 11.3515625 C-9.24904297 10.45050781 -8.89261719 9.54945313 -8.52539062 8.62109375 C-4.78233274 -0.54081307 -4.78233274 -0.54081307 0 0 Z M-2.41796875 18.7265625 C-4.99011655 23.8708581 -4.18755513 27.41780335 -2.41796875 32.7265625 C-1.75796875 32.7265625 -1.09796875 32.7265625 -0.41796875 32.7265625 C1.62697297 28.63667906 1.63928344 26.14779891 0.58203125 21.7265625 C0.25203125 20.7365625 -0.07796875 19.7465625 -0.41796875 18.7265625 C-1.07796875 18.7265625 -1.73796875 18.7265625 -2.41796875 18.7265625 Z " fill="#000000" transform="translate(449.41796875,190.2734375)"/>
<path d="M0 0 C3.125 -0.1875 3.125 -0.1875 6 0 C8.50791459 4.737172 10.72200521 9.53690164 12.75 14.5 C13.17796875 15.5415625 13.6059375 16.583125 14.046875 17.65625 C16.45072549 26.0894304 14.24920671 32.07695678 11.0625 39.9375 C10.68931641 40.89462891 10.31613281 41.85175781 9.93164062 42.83789062 C7.18233131 49.81766869 7.18233131 49.81766869 6 51 C4.00041636 51.04080783 1.99954746 51.04254356 0 51 C-2.38280774 45.84834304 -4.61585997 40.63434793 -6.75 35.375 C-7.17796875 34.33085937 -7.6059375 33.28671875 -8.046875 32.2109375 C-10.25735593 24.7641534 -8.33208989 19.20034587 -5.625 12.25 C-5.30789062 11.40050781 -4.99078125 10.55101562 -4.6640625 9.67578125 C-3.32567869 6.14579396 -2.10615021 3.15922531 0 0 Z M2 18 C0.20869346 23.99201758 0.20869346 23.99201758 0.875 30.0625 C1.24625 30.701875 1.6175 31.34125 2 32 C2.66 32 3.32 32 4 32 C6.56786548 27.57756501 5.71809676 24.48856529 4.5078125 19.79296875 C4.34023437 19.20128906 4.17265625 18.60960937 4 18 C3.34 18 2.68 18 2 18 Z " fill="#000000" transform="translate(69,144)"/>
<path d="M0 0 C0.04254356 1.99954746 0.04080783 4.00041636 0 6 C-1 7 -1 7 -4.0859375 7.21484375 C-8.26267734 6.98558158 -11.74247366 5.99477344 -15.625 4.5625 C-32.8754912 -1.62065799 -52.74094526 -1.00932263 -69.66015625 6.12109375 C-72.84452164 7.31722432 -75.63205394 7.19430458 -79 7 C-80 6 -80 6 -80.0625 2.9375 C-80.041875 1.968125 -80.02125 0.99875 -80 0 C-57.23015846 -13.65071581 -22.76984154 -13.65071581 0 0 Z " fill="#000000" transform="translate(236,193)"/>
<path d="M0 0 C2.625 0.625 2.625 0.625 5 2 C5.86376953 3.64379883 5.86376953 3.64379883 6 6 C4.95219309 8.48896226 3.85831358 10.7252102 2.5546875 13.07421875 C2.00435349 14.09912163 2.00435349 14.09912163 1.44290161 15.14472961 C0.26489509 17.33198198 -0.92975826 19.509627 -2.125 21.6875 C-2.9073516 23.13417043 -3.68861368 24.58143063 -4.46875 26.02929688 C-5.23138408 27.44031327 -5.99439896 28.85112392 -6.7578125 30.26171875 C-7.31326752 31.28807938 -7.31326752 31.28807938 -7.87994385 32.33517456 C-9.45079362 35.22125361 -11.04299392 38.07124258 -12.74121094 40.88525391 C-13.2159082 41.67206543 -13.69060547 42.45887695 -14.1796875 43.26953125 C-14.58687012 43.91124268 -14.99405273 44.5529541 -15.41357422 45.21411133 C-16.21770733 47.05132783 -16.21770733 47.05132783 -15.27416992 49.06713867 C-13.01567438 52.4931799 -9.88582755 55.14920912 -6.90039062 57.93359375 C-2.07449707 62.57313455 -2.07449707 62.57313455 -2 66 C-3.9375 68.25 -3.9375 68.25 -6 70 C-11.7360749 68.00646665 -15.08201109 64.46914712 -19.3125 60.25 C-20.42334961 59.19425781 -20.42334961 59.19425781 -21.55664062 58.1171875 C-22.25595703 57.42367187 -22.95527344 56.73015625 -23.67578125 56.015625 C-24.31427002 55.38946289 -24.95275879 54.76330078 -25.6105957 54.11816406 C-27.55097445 51.16003262 -27.46430154 49.49400253 -27 46 C-25.93435824 43.47957864 -24.84518885 41.2138507 -23.52734375 38.8359375 C-23.1666127 38.16261383 -22.80588165 37.48929016 -22.43421936 36.79556274 C-21.28018253 34.64891063 -20.10900078 32.51216145 -18.9375 30.375 C-18.17663908 28.96282917 -17.41686345 27.55007303 -16.65820312 26.13671875 C-14.46958102 22.07386552 -12.24400041 18.03249148 -10 14 C-9.6612384 13.38870239 -9.32247681 12.77740479 -8.97344971 12.14758301 C-8.03415446 10.46059785 -7.08187847 8.78085951 -6.12890625 7.1015625 C-5.59467041 6.15877441 -5.06043457 5.21598633 -4.51000977 4.24462891 C-3 2 -3 2 0 0 Z " fill="#000000" transform="translate(259,243)"/>
<path d="M0 0 C-0.33 2.31 -0.66 4.62 -1 7 C-6.66326324 7.50340118 -10.72005418 6.20783289 -15.9609375 4.0703125 C-23.8000179 1.30950526 -31.27897895 0.61305644 -39.5625 0.625 C-40.61083008 0.62516113 -41.65916016 0.62532227 -42.73925781 0.62548828 C-52.10351372 0.76180522 -61.72252158 1.78852708 -70.19140625 6.12109375 C-73.08653125 7.52801194 -75.84700833 7.17847123 -79 7 C-80 6 -80 6 -80.0625 2.9375 C-80.041875 1.968125 -80.02125 0.99875 -80 0 C-57.23015846 -13.65071581 -22.76984154 -13.65071581 0 0 Z " fill="#000000" transform="translate(356,193)"/>
<path d="M0 0 C2.5625 0.375 2.5625 0.375 4.375 2.25 C5.5625 4.375 5.5625 4.375 5.5625 6.375 C16.58474302 12.08472048 29.19833796 13.34002744 41.25 10.1875 C45.33076854 8.74521832 47.7404944 6.69500659 50.5625 3.375 C52.5625 1.5 52.5625 1.5 54.5625 0.375 C58.97275641 0.78525641 58.97275641 0.78525641 60.5625 2.375 C61.11370767 6.32532162 60.77916273 8.0325331 58.625 11.4375 C51.89298489 18.66256411 42.57546177 21.22666354 32.984375 21.7109375 C20.45852295 21.95059704 8.33655308 21.08665601 -1.4375 12.375 C-3.54198486 9.65953566 -4.35458107 8.08810283 -4.75 4.6875 C-4.30046735 1.36095837 -3.2888177 0.50597195 0 0 Z " fill="#000000" transform="translate(228.4375,326.625)"/>
</svg>
