<svg xmlns="http://www.w3.org/2000/svg" style="display:none">
  <!-- Facials -->
  <symbol id="icon-facials" viewBox="0 0 24 24" fill="none" stroke="currentColor" stroke-width="1.6" stroke-linecap="round" stroke-linejoin="round">
    <circle cx="12" cy="12" r="8.5"/>
    <circle cx="9" cy="11" r="0.8"/>
    <circle cx="15" cy="11" r="0.8"/>
    <path d="M9 15c1.2.9 4.8.9 6 0"/>
    <path d="M5 5l.8 1.6L7.5 7l-1.7.4L5 9l-.8-1.6L2.5 7l1.7-.4L5 5z"/>
  </symbol>

  <!-- Chemical Peel -->
  <symbol id="icon-peel" viewBox="0 0 24 24" fill="none" stroke="currentColor" stroke-width="1.6" stroke-linecap="round" stroke-linejoin="round">
    <path d="M9 3h6"/>
    <path d="M10 3v4l-5 8a6 6 0 0 0 5 3h4a6 6 0 0 0 5-3l-5-8V3"/>
    <path d="M8 15h8"/>
    <path d="M9.5 12.5h5"/>
  </symbol>

  <!-- Eyelash Services -->
  <symbol id="icon-eyelash" viewBox="0 0 24 24" fill="none" stroke="currentColor" stroke-width="1.6" stroke-linecap="round" stroke-linejoin="round">
    <path d="M2.5 12s3.5-5 9.5-5 9.5 5 9.5 5-3.5 5-9.5 5-9.5-5-9.5-5z"/>
    <circle cx="12" cy="12" r="2.5"/>
    <path d="M6 7.5 5 5.5"/>
    <path d="M9 6.2 8.5 4.2"/>
    <path d="M12 5.8V3.8"/>
    <path d="M15 6.2 15.5 4.2"/>
    <path d="M18 7.5 19 5.5"/>
  </symbol>

  <!-- Electrolysis -->
  <symbol id="icon-electrolysis" viewBox="0 0 24 24" fill="none" stroke="currentColor" stroke-width="1.6" stroke-linecap="round" stroke-linejoin="round">
    <path d="M3 16h18"/>
    <path d="M4 16c4 0 5-6 8-6s4 6 8 6"/>
    <path d="M12 16v4"/>
    <path d="M10 20h4"/>
    <path d="M13.5 9.5 11 12h2l-1.5 2.5"/>
  </symbol>
</svg>
